<svg width="934" height="208" viewBox="0 0 934 208" fill="none" xmlns="http://www.w3.org/2000/svg">
<g clip-path="url(#clip0_3003_781)">
<path fill-rule="evenodd" clip-rule="evenodd" d="M130.061 15.4112C136.442 14.0593 143.094 13.3384 149.925 13.3384C203.495 13.3384 246.999 56.9571 246.999 110.85C246.999 141.981 232.415 169.721 209.705 187.544C214.647 196.122 226.418 203.53 233.257 206.801C216.639 208.835 197.194 204.528 186.278 201.128C175.053 205.676 162.783 208.181 149.925 208.181C143.184 208.181 136.442 207.46 130.061 206.108C174.193 196.825 207.271 157.713 207.271 110.76C207.271 63.8063 174.103 24.6035 130.061 15.4112Z" fill="url(#paint0_linear_3003_781)"/>
<path d="M18.1569 55.2442C5.21364 79.6671 2.60702 104.811 11.865 130.856C25.4374 169.067 63.638 193.04 103.906 189.255C139.14 185.92 160.982 165.733 173.206 133.65C174.824 129.504 175.992 125.088 176.891 120.582C174.734 124.097 172.667 127.522 170.509 131.036C173.925 119.14 176.711 107.244 175.903 94.7174C175.094 82.1004 171.229 70.4747 164.487 59.1194C164.128 61.012 163.948 62.4539 163.678 63.8058C153.432 36.9496 131.59 26.0449 105.793 20.4574C113.344 23.6117 120.534 27.3967 126.646 32.8941C146.96 51.2789 156.038 73.7191 149.567 101.116C147.409 110.398 142.016 118.059 134.736 124.277C134.017 124.908 133.118 125.449 132.129 125.899C136.893 117.788 140.848 109.497 141.567 100.035C134.826 116.707 120.354 125.449 106.512 134.911C98.6027 140.319 90.6929 145.726 82.9629 151.404C79.008 154.378 75.5026 157.983 72.087 161.858C72.4465 160.957 72.8061 160.145 73.1656 159.244C76.6711 152.125 81.6147 146.267 87.2773 140.859C95.4567 133.019 103.996 125.629 111.995 117.608C115.141 114.454 117.478 110.489 119.635 106.613C121.613 103.099 121.523 99.0432 120.354 95.0779C119.995 93.726 119.905 92.2841 119.905 90.8422C119.905 86.7867 118.557 83.4522 115.321 81.1091C122.512 91.9236 114.512 105.352 102.288 108.236C100.49 108.686 98.6027 108.686 96.9847 109.407C94.3781 110.489 91.6816 111.57 89.4345 113.192C84.0415 117.158 78.9182 121.483 73.615 125.539C69.75 128.513 66.4243 131.487 64.8963 136.534C63.0088 142.752 57.7056 145.546 50.515 144.735C44.8523 144.104 39.7289 141.941 35.774 137.705C29.7519 131.487 28.853 124.187 31.8192 116.346C34.6056 109.227 37.8414 102.197 40.9873 95.2581C43.7737 89.0397 46.9196 83.0016 49.5262 76.6931C51.7733 71.0155 53.3912 65.0675 55.5484 59.2997C56.8967 55.6948 58.3348 51.9097 60.492 48.7555C65.3457 41.6359 70.559 34.6966 75.7722 27.8474C76.9407 26.3153 76.9407 25.1437 75.952 23.5215C72.8061 18.3846 69.75 13.0675 66.7839 7.84042C65.6154 5.76763 63.7278 3.42448 65.4356 1.26157C67.3232 -1.08159 70.1994 0.450475 72.3567 1.44181C79.817 5.13678 87.0976 9.19224 94.5579 12.8872C96.2657 13.7884 98.333 14.4193 100.221 14.5094C146.421 17.213 183.902 51.0987 191.452 96.8803C197.834 135.632 178.15 176.187 143.904 195.383C125.658 205.567 106.243 209.622 85.5695 207.459C46.4702 203.404 12.8537 174.294 3.2362 135.723C-3.68483 108.055 0.809347 82.1905 16.0896 58.2182C16.7187 57.2269 17.4378 56.2356 18.1569 55.2442Z" fill="#4FC0E8"/>
<path d="M158.465 78.2251C169.61 107.334 160.442 135.452 127.635 151.494C151.274 132.388 165.026 109.858 158.465 78.2251Z" fill="#4FC0E8"/>
</g>
<path d="M268.87 190V165.71H272.16V190H268.87ZM271.11 190V186.99H284.13V190H271.11Z" fill="#656D78"/>
<path d="M294.604 190.35C292.947 190.35 291.454 189.976 290.124 189.23C288.794 188.46 287.744 187.421 286.974 186.115C286.204 184.808 285.819 183.326 285.819 181.67C285.819 180.036 286.192 178.566 286.939 177.26C287.709 175.953 288.736 174.926 290.019 174.18C291.326 173.41 292.784 173.025 294.394 173.025C295.934 173.025 297.287 173.375 298.454 174.075C299.644 174.775 300.566 175.743 301.219 176.98C301.896 178.216 302.234 179.616 302.234 181.18C302.234 181.413 302.222 181.67 302.199 181.95C302.176 182.206 302.129 182.51 302.059 182.86H288.024V180.235H300.379L299.224 181.25C299.224 180.13 299.026 179.185 298.629 178.415C298.232 177.621 297.672 177.015 296.949 176.595C296.226 176.151 295.351 175.93 294.324 175.93C293.251 175.93 292.306 176.163 291.489 176.63C290.672 177.096 290.042 177.75 289.599 178.59C289.156 179.43 288.934 180.421 288.934 181.565C288.934 182.731 289.167 183.758 289.634 184.645C290.101 185.508 290.766 186.185 291.629 186.675C292.492 187.141 293.484 187.375 294.604 187.375C295.537 187.375 296.389 187.211 297.159 186.885C297.952 186.558 298.629 186.068 299.189 185.415L301.219 187.48C300.426 188.413 299.446 189.125 298.279 189.615C297.136 190.105 295.911 190.35 294.604 190.35Z" fill="#656D78"/>
<path d="M312.739 190.35C311.222 190.35 309.845 189.976 308.609 189.23C307.372 188.46 306.392 187.421 305.669 186.115C304.969 184.808 304.619 183.338 304.619 181.705C304.619 180.071 304.969 178.601 305.669 177.295C306.392 175.988 307.36 174.95 308.574 174.18C309.81 173.41 311.199 173.025 312.739 173.025C313.999 173.025 315.119 173.293 316.099 173.83C317.102 174.343 317.907 175.066 318.514 176C319.12 176.91 319.459 177.971 319.529 179.185V184.19C319.459 185.38 319.12 186.441 318.514 187.375C317.93 188.308 317.137 189.043 316.134 189.58C315.154 190.093 314.022 190.35 312.739 190.35ZM313.264 187.375C314.827 187.375 316.087 186.85 317.044 185.8C318 184.726 318.479 183.361 318.479 181.705C318.479 180.561 318.257 179.57 317.814 178.73C317.394 177.866 316.787 177.201 315.994 176.735C315.2 176.245 314.279 176 313.229 176C312.179 176 311.245 176.245 310.429 176.735C309.635 177.225 309.005 177.901 308.539 178.765C308.095 179.605 307.874 180.573 307.874 181.67C307.874 182.79 308.095 183.781 308.539 184.645C309.005 185.485 309.647 186.15 310.464 186.64C311.28 187.13 312.214 187.375 313.264 187.375ZM318.269 190V185.52L318.864 181.46L318.269 177.435V173.375H321.454V190H318.269Z" fill="#656D78"/>
<path d="M333.075 190.35C331.535 190.35 330.158 189.976 328.945 189.23C327.731 188.46 326.763 187.421 326.04 186.115C325.34 184.808 324.99 183.338 324.99 181.705C324.99 180.071 325.34 178.601 326.04 177.295C326.763 175.988 327.731 174.95 328.945 174.18C330.158 173.41 331.535 173.025 333.075 173.025C334.311 173.025 335.431 173.293 336.435 173.83C337.438 174.343 338.243 175.066 338.85 176C339.48 176.91 339.83 177.971 339.9 179.185V184.19C339.83 185.38 339.491 186.441 338.885 187.375C338.278 188.308 337.473 189.043 336.47 189.58C335.466 190.093 334.335 190.35 333.075 190.35ZM333.6 187.375C334.65 187.375 335.56 187.13 336.33 186.64C337.123 186.15 337.741 185.485 338.185 184.645C338.628 183.781 338.85 182.801 338.85 181.705C338.85 180.561 338.616 179.57 338.15 178.73C337.706 177.89 337.088 177.225 336.295 176.735C335.525 176.245 334.615 176 333.565 176C332.515 176 331.593 176.245 330.8 176.735C330.006 177.225 329.376 177.901 328.91 178.765C328.466 179.605 328.245 180.573 328.245 181.67C328.245 182.79 328.466 183.781 328.91 184.645C329.376 185.485 330.006 186.15 330.8 186.64C331.616 187.13 332.55 187.375 333.6 187.375ZM341.825 190H338.64V185.52L339.235 181.46L338.64 177.435V165.01H341.825V190Z" fill="#656D78"/>
<path d="M346.446 190V173.375H349.596V190H346.446ZM348.021 170.05C347.437 170.05 346.959 169.863 346.586 169.49C346.212 169.093 346.026 168.603 346.026 168.02C346.026 167.46 346.212 166.993 346.586 166.62C346.959 166.223 347.437 166.025 348.021 166.025C348.604 166.025 349.082 166.223 349.456 166.62C349.829 166.993 350.016 167.46 350.016 168.02C350.016 168.603 349.829 169.093 349.456 169.49C349.082 169.863 348.604 170.05 348.021 170.05Z" fill="#656D78"/>
<path d="M365.998 190V180.305C365.998 179.045 365.601 178.006 364.808 177.19C364.015 176.373 362.988 175.965 361.728 175.965C360.888 175.965 360.141 176.151 359.488 176.525C358.835 176.898 358.321 177.411 357.948 178.065C357.575 178.718 357.388 179.465 357.388 180.305L356.093 179.57C356.093 178.31 356.373 177.19 356.933 176.21C357.493 175.23 358.275 174.46 359.278 173.9C360.281 173.316 361.413 173.025 362.673 173.025C363.933 173.025 365.041 173.34 365.998 173.97C366.978 174.6 367.748 175.428 368.308 176.455C368.868 177.458 369.148 178.531 369.148 179.675V190H365.998ZM354.238 190V173.375H357.388V190H354.238Z" fill="#656D78"/>
<path d="M380.308 197.315C378.604 197.315 377.088 197 375.758 196.37C374.451 195.74 373.401 194.853 372.608 193.71L374.638 191.645C375.314 192.508 376.119 193.161 377.053 193.605C377.986 194.071 379.094 194.305 380.378 194.305C382.081 194.305 383.423 193.85 384.403 192.94C385.406 192.053 385.908 190.851 385.908 189.335V185.205L386.468 181.46L385.908 177.75V173.375H389.058V189.335C389.058 190.921 388.684 192.31 387.938 193.5C387.214 194.69 386.188 195.623 384.858 196.3C383.551 196.976 382.034 197.315 380.308 197.315ZM380.308 189.72C378.791 189.72 377.426 189.358 376.213 188.635C375.023 187.911 374.078 186.92 373.378 185.66C372.678 184.376 372.328 182.941 372.328 181.355C372.328 179.768 372.678 178.356 373.378 177.12C374.078 175.86 375.023 174.868 376.213 174.145C377.426 173.398 378.791 173.025 380.308 173.025C381.614 173.025 382.769 173.281 383.773 173.795C384.776 174.308 385.569 175.031 386.153 175.965C386.759 176.875 387.086 177.948 387.133 179.185V183.595C387.063 184.808 386.724 185.881 386.118 186.815C385.534 187.725 384.741 188.436 383.738 188.95C382.734 189.463 381.591 189.72 380.308 189.72ZM380.938 186.745C381.964 186.745 382.863 186.523 383.633 186.08C384.426 185.636 385.033 185.018 385.453 184.225C385.873 183.408 386.083 182.463 386.083 181.39C386.083 180.316 385.861 179.383 385.418 178.59C384.998 177.773 384.403 177.143 383.633 176.7C382.863 176.233 381.953 176 380.903 176C379.853 176 378.931 176.233 378.138 176.7C377.344 177.143 376.714 177.773 376.248 178.59C375.804 179.383 375.583 180.305 375.583 181.355C375.583 182.405 375.804 183.338 376.248 184.155C376.714 184.971 377.344 185.613 378.138 186.08C378.954 186.523 379.888 186.745 380.938 186.745Z" fill="#656D78"/>
<path d="M403.516 190V166.41H406.666V190H403.516ZM399.421 176.245V173.375H410.761V176.245H399.421Z" fill="#656D78"/>
<path d="M425.607 190V180.305C425.607 179.045 425.211 178.006 424.417 177.19C423.624 176.373 422.597 175.965 421.337 175.965C420.497 175.965 419.751 176.151 419.097 176.525C418.444 176.898 417.931 177.411 417.557 178.065C417.184 178.718 416.997 179.465 416.997 180.305L415.702 179.57C415.702 178.31 415.982 177.19 416.542 176.21C417.102 175.23 417.884 174.46 418.887 173.9C419.891 173.316 421.022 173.025 422.282 173.025C423.542 173.025 424.651 173.305 425.607 173.865C426.587 174.425 427.357 175.206 427.917 176.21C428.477 177.213 428.757 178.368 428.757 179.675V190H425.607ZM413.847 190V165.01H416.997V190H413.847Z" fill="#656D78"/>
<path d="M440.722 190.35C439.065 190.35 437.572 189.976 436.242 189.23C434.912 188.46 433.862 187.421 433.092 186.115C432.322 184.808 431.937 183.326 431.937 181.67C431.937 180.036 432.31 178.566 433.057 177.26C433.827 175.953 434.854 174.926 436.137 174.18C437.444 173.41 438.902 173.025 440.512 173.025C442.052 173.025 443.405 173.375 444.572 174.075C445.762 174.775 446.684 175.743 447.337 176.98C448.014 178.216 448.352 179.616 448.352 181.18C448.352 181.413 448.34 181.67 448.317 181.95C448.294 182.206 448.247 182.51 448.177 182.86H434.142V180.235H446.497L445.342 181.25C445.342 180.13 445.144 179.185 444.747 178.415C444.35 177.621 443.79 177.015 443.067 176.595C442.344 176.151 441.469 175.93 440.442 175.93C439.369 175.93 438.424 176.163 437.607 176.63C436.79 177.096 436.16 177.75 435.717 178.59C435.274 179.43 435.052 180.421 435.052 181.565C435.052 182.731 435.285 183.758 435.752 184.645C436.219 185.508 436.884 186.185 437.747 186.675C438.61 187.141 439.602 187.375 440.722 187.375C441.655 187.375 442.507 187.211 443.277 186.885C444.07 186.558 444.747 186.068 445.307 185.415L447.337 187.48C446.544 188.413 445.564 189.125 444.397 189.615C443.254 190.105 442.029 190.35 440.722 190.35Z" fill="#656D78"/>
<path d="M459.627 190V165.71H462.917V190H459.627ZM461.867 179.325V176.315H474.537V179.325H461.867ZM461.867 168.72V165.71H475.132V168.72H461.867Z" fill="#656D78"/>
<path d="M485.576 190.35C484.223 190.35 482.998 190.046 481.901 189.44C480.828 188.81 479.988 187.946 479.381 186.85C478.774 185.753 478.471 184.481 478.471 183.035V173.375H481.621V182.895C481.621 183.805 481.773 184.598 482.076 185.275C482.403 185.928 482.869 186.43 483.476 186.78C484.083 187.13 484.795 187.305 485.611 187.305C486.848 187.305 487.816 186.92 488.516 186.15C489.216 185.356 489.566 184.271 489.566 182.895V173.375H492.716V183.035C492.716 184.481 492.413 185.753 491.806 186.85C491.199 187.946 490.36 188.81 489.286 189.44C488.236 190.046 487 190.35 485.576 190.35Z" fill="#656D78"/>
<path d="M499.493 190V166.41H502.643V190H499.493ZM495.398 176.245V173.375H506.738V176.245H495.398Z" fill="#656D78"/>
<path d="M516.509 190.35C515.155 190.35 513.93 190.046 512.834 189.44C511.76 188.81 510.92 187.946 510.314 186.85C509.707 185.753 509.404 184.481 509.404 183.035V173.375H512.554V182.895C512.554 183.805 512.705 184.598 513.009 185.275C513.335 185.928 513.802 186.43 514.409 186.78C515.015 187.13 515.727 187.305 516.544 187.305C517.78 187.305 518.749 186.92 519.449 186.15C520.149 185.356 520.499 184.271 520.499 182.895V173.375H523.649V183.035C523.649 184.481 523.345 185.753 522.739 186.85C522.132 187.946 521.292 188.81 520.219 189.44C519.169 190.046 517.932 190.35 516.509 190.35Z" fill="#656D78"/>
<path d="M527.871 190V173.375H531.021V190H527.871ZM531.021 180.515L529.831 179.99C529.831 177.866 530.321 176.175 531.301 174.915C532.281 173.655 533.692 173.025 535.536 173.025C536.376 173.025 537.134 173.176 537.811 173.48C538.487 173.76 539.117 174.238 539.701 174.915L537.636 177.05C537.286 176.676 536.901 176.408 536.481 176.245C536.061 176.081 535.571 176 535.011 176C533.844 176 532.887 176.373 532.141 177.12C531.394 177.866 531.021 178.998 531.021 180.515Z" fill="#656D78"/>
<path d="M549.072 190.35C547.415 190.35 545.922 189.976 544.592 189.23C543.262 188.46 542.212 187.421 541.442 186.115C540.672 184.808 540.287 183.326 540.287 181.67C540.287 180.036 540.66 178.566 541.407 177.26C542.177 175.953 543.203 174.926 544.487 174.18C545.793 173.41 547.252 173.025 548.862 173.025C550.402 173.025 551.755 173.375 552.922 174.075C554.112 174.775 555.033 175.743 555.687 176.98C556.363 178.216 556.702 179.616 556.702 181.18C556.702 181.413 556.69 181.67 556.667 181.95C556.643 182.206 556.597 182.51 556.527 182.86H542.492V180.235H554.847L553.692 181.25C553.692 180.13 553.493 179.185 553.097 178.415C552.7 177.621 552.14 177.015 551.417 176.595C550.693 176.151 549.818 175.93 548.792 175.93C547.718 175.93 546.773 176.163 545.957 176.63C545.14 177.096 544.51 177.75 544.067 178.59C543.623 179.43 543.402 180.421 543.402 181.565C543.402 182.731 543.635 183.758 544.102 184.645C544.568 185.508 545.233 186.185 546.097 186.675C546.96 187.141 547.952 187.375 549.072 187.375C550.005 187.375 550.857 187.211 551.627 186.885C552.42 186.558 553.097 186.068 553.657 185.415L555.687 187.48C554.893 188.413 553.913 189.125 552.747 189.615C551.603 190.105 550.378 190.35 549.072 190.35Z" fill="#656D78"/>
<path d="M560.311 193.85L562.481 189.685L563.601 189.405C563.485 189.661 563.333 189.871 563.146 190.035C562.983 190.198 562.773 190.28 562.516 190.28C562.026 190.28 561.571 190.081 561.151 189.685C560.755 189.265 560.556 188.751 560.556 188.145C560.556 187.468 560.778 186.908 561.221 186.465C561.665 185.998 562.225 185.765 562.901 185.765C563.508 185.765 564.045 185.998 564.511 186.465C564.978 186.908 565.211 187.468 565.211 188.145C565.211 188.401 565.153 188.716 565.036 189.09C564.943 189.44 564.745 189.895 564.441 190.455L562.131 194.83L560.311 193.85Z" fill="#656D78"/>
<path d="M579.82 190V187.13H587.17C588.57 187.13 589.667 186.721 590.46 185.905C591.254 185.065 591.65 184.061 591.65 182.895C591.65 182.101 591.475 181.39 591.125 180.76C590.775 180.106 590.262 179.593 589.585 179.22C588.932 178.846 588.162 178.66 587.275 178.66H579.82V175.79H586.785C587.952 175.79 588.874 175.486 589.55 174.88C590.25 174.25 590.6 173.351 590.6 172.185C590.6 171.018 590.239 170.131 589.515 169.525C588.792 168.895 587.835 168.58 586.645 168.58H579.82V165.71H586.715C588.302 165.71 589.62 166.001 590.67 166.585C591.744 167.145 592.549 167.891 593.085 168.825C593.645 169.758 593.925 170.785 593.925 171.905C593.925 173.211 593.564 174.355 592.84 175.335C592.14 176.315 591.102 177.085 589.725 177.645L590.005 176.595C591.569 177.155 592.782 178.006 593.645 179.15C594.532 180.27 594.975 181.6 594.975 183.14C594.975 184.423 594.66 185.578 594.03 186.605C593.4 187.631 592.49 188.46 591.3 189.09C590.134 189.696 588.699 190 586.995 190H579.82ZM577.615 190V165.71H580.905V190H577.615Z" fill="#656D78"/>
<path d="M605.547 190.35C604.194 190.35 602.969 190.046 601.872 189.44C600.799 188.81 599.959 187.946 599.352 186.85C598.745 185.753 598.442 184.481 598.442 183.035V173.375H601.592V182.895C601.592 183.805 601.744 184.598 602.047 185.275C602.374 185.928 602.84 186.43 603.447 186.78C604.054 187.13 604.765 187.305 605.582 187.305C606.819 187.305 607.787 186.92 608.487 186.15C609.187 185.356 609.537 184.271 609.537 182.895V173.375H612.687V183.035C612.687 184.481 612.384 185.753 611.777 186.85C611.17 187.946 610.33 188.81 609.257 189.44C608.207 190.046 606.97 190.35 605.547 190.35Z" fill="#656D78"/>
<path d="M616.944 190V173.375H620.094V190H616.944ZM618.519 170.05C617.935 170.05 617.457 169.863 617.084 169.49C616.71 169.093 616.524 168.603 616.524 168.02C616.524 167.46 616.71 166.993 617.084 166.62C617.457 166.223 617.935 166.025 618.519 166.025C619.102 166.025 619.58 166.223 619.954 166.62C620.327 166.993 620.514 167.46 620.514 168.02C620.514 168.603 620.327 169.093 619.954 169.49C619.58 169.863 619.102 170.05 618.519 170.05Z" fill="#656D78"/>
<path d="M624.736 190V165.01H627.886V190H624.736Z" fill="#656D78"/>
<path d="M639.53 190.35C637.99 190.35 636.613 189.976 635.4 189.23C634.186 188.46 633.218 187.421 632.495 186.115C631.795 184.808 631.445 183.338 631.445 181.705C631.445 180.071 631.795 178.601 632.495 177.295C633.218 175.988 634.186 174.95 635.4 174.18C636.613 173.41 637.99 173.025 639.53 173.025C640.766 173.025 641.886 173.293 642.89 173.83C643.893 174.343 644.698 175.066 645.305 176C645.935 176.91 646.285 177.971 646.355 179.185V184.19C646.285 185.38 645.946 186.441 645.34 187.375C644.733 188.308 643.928 189.043 642.925 189.58C641.921 190.093 640.79 190.35 639.53 190.35ZM640.055 187.375C641.105 187.375 642.015 187.13 642.785 186.64C643.578 186.15 644.196 185.485 644.64 184.645C645.083 183.781 645.305 182.801 645.305 181.705C645.305 180.561 645.071 179.57 644.605 178.73C644.161 177.89 643.543 177.225 642.75 176.735C641.98 176.245 641.07 176 640.02 176C638.97 176 638.048 176.245 637.255 176.735C636.461 177.225 635.831 177.901 635.365 178.765C634.921 179.605 634.7 180.573 634.7 181.67C634.7 182.79 634.921 183.781 635.365 184.645C635.831 185.485 636.461 186.15 637.255 186.64C638.071 187.13 639.005 187.375 640.055 187.375ZM648.28 190H645.095V185.52L645.69 181.46L645.095 177.435V165.01H648.28V190Z" fill="#656D78"/>
<path d="M652.901 190V173.375H656.051V190H652.901ZM654.476 170.05C653.892 170.05 653.414 169.863 653.041 169.49C652.667 169.093 652.481 168.603 652.481 168.02C652.481 167.46 652.667 166.993 653.041 166.62C653.414 166.223 653.892 166.025 654.476 166.025C655.059 166.025 655.537 166.223 655.911 166.62C656.284 166.993 656.471 167.46 656.471 168.02C656.471 168.603 656.284 169.093 655.911 169.49C655.537 169.863 655.059 170.05 654.476 170.05Z" fill="#656D78"/>
<path d="M672.453 190V180.305C672.453 179.045 672.056 178.006 671.263 177.19C670.47 176.373 669.443 175.965 668.183 175.965C667.343 175.965 666.596 176.151 665.943 176.525C665.29 176.898 664.776 177.411 664.403 178.065C664.03 178.718 663.843 179.465 663.843 180.305L662.548 179.57C662.548 178.31 662.828 177.19 663.388 176.21C663.948 175.23 664.73 174.46 665.733 173.9C666.736 173.316 667.868 173.025 669.128 173.025C670.388 173.025 671.496 173.34 672.453 173.97C673.433 174.6 674.203 175.428 674.763 176.455C675.323 177.458 675.603 178.531 675.603 179.675V190H672.453ZM660.693 190V173.375H663.843V190H660.693Z" fill="#656D78"/>
<path d="M686.763 197.315C685.059 197.315 683.543 197 682.213 196.37C680.906 195.74 679.856 194.853 679.063 193.71L681.093 191.645C681.769 192.508 682.574 193.161 683.508 193.605C684.441 194.071 685.549 194.305 686.833 194.305C688.536 194.305 689.878 193.85 690.858 192.94C691.861 192.053 692.363 190.851 692.363 189.335V185.205L692.923 181.46L692.363 177.75V173.375H695.513V189.335C695.513 190.921 695.139 192.31 694.393 193.5C693.669 194.69 692.643 195.623 691.313 196.3C690.006 196.976 688.489 197.315 686.763 197.315ZM686.763 189.72C685.246 189.72 683.881 189.358 682.668 188.635C681.478 187.911 680.533 186.92 679.833 185.66C679.133 184.376 678.783 182.941 678.783 181.355C678.783 179.768 679.133 178.356 679.833 177.12C680.533 175.86 681.478 174.868 682.668 174.145C683.881 173.398 685.246 173.025 686.763 173.025C688.069 173.025 689.224 173.281 690.228 173.795C691.231 174.308 692.024 175.031 692.608 175.965C693.214 176.875 693.541 177.948 693.588 179.185V183.595C693.518 184.808 693.179 185.881 692.573 186.815C691.989 187.725 691.196 188.436 690.193 188.95C689.189 189.463 688.046 189.72 686.763 189.72ZM687.393 186.745C688.419 186.745 689.318 186.523 690.088 186.08C690.881 185.636 691.488 185.018 691.908 184.225C692.328 183.408 692.538 182.463 692.538 181.39C692.538 180.316 692.316 179.383 691.873 178.59C691.453 177.773 690.858 177.143 690.088 176.7C689.318 176.233 688.408 176 687.358 176C686.308 176 685.386 176.233 684.593 176.7C683.799 177.143 683.169 177.773 682.703 178.59C682.259 179.383 682.038 180.305 682.038 181.355C682.038 182.405 682.259 183.338 682.703 184.155C683.169 184.971 683.799 185.613 684.593 186.08C685.409 186.523 686.343 186.745 687.393 186.745Z" fill="#656D78"/>
<path d="M710.182 190V187.13H717.532C718.932 187.13 720.028 186.721 720.822 185.905C721.615 185.065 722.012 184.061 722.012 182.895C722.012 182.101 721.837 181.39 721.487 180.76C721.137 180.106 720.623 179.593 719.947 179.22C719.293 178.846 718.523 178.66 717.637 178.66H710.182V175.79H717.147C718.313 175.79 719.235 175.486 719.912 174.88C720.612 174.25 720.962 173.351 720.962 172.185C720.962 171.018 720.6 170.131 719.877 169.525C719.153 168.895 718.197 168.58 717.007 168.58H710.182V165.71H717.077C718.663 165.71 719.982 166.001 721.032 166.585C722.105 167.145 722.91 167.891 723.447 168.825C724.007 169.758 724.287 170.785 724.287 171.905C724.287 173.211 723.925 174.355 723.202 175.335C722.502 176.315 721.463 177.085 720.087 177.645L720.367 176.595C721.93 177.155 723.143 178.006 724.007 179.15C724.893 180.27 725.337 181.6 725.337 183.14C725.337 184.423 725.022 185.578 724.392 186.605C723.762 187.631 722.852 188.46 721.662 189.09C720.495 189.696 719.06 190 717.357 190H710.182ZM707.977 190V165.71H711.267V190H707.977Z" fill="#656D78"/>
<path d="M736.923 190.35C735.267 190.35 733.773 189.976 732.443 189.23C731.113 188.46 730.063 187.421 729.293 186.115C728.523 184.808 728.138 183.326 728.138 181.67C728.138 180.036 728.512 178.566 729.258 177.26C730.028 175.953 731.055 174.926 732.338 174.18C733.645 173.41 735.103 173.025 736.713 173.025C738.253 173.025 739.607 173.375 740.773 174.075C741.963 174.775 742.885 175.743 743.538 176.98C744.215 178.216 744.553 179.616 744.553 181.18C744.553 181.413 744.542 181.67 744.518 181.95C744.495 182.206 744.448 182.51 744.378 182.86H730.343V180.235H742.698L741.543 181.25C741.543 180.13 741.345 179.185 740.948 178.415C740.552 177.621 739.992 177.015 739.268 176.595C738.545 176.151 737.67 175.93 736.643 175.93C735.57 175.93 734.625 176.163 733.808 176.63C732.992 177.096 732.362 177.75 731.918 178.59C731.475 179.43 731.253 180.421 731.253 181.565C731.253 182.731 731.487 183.758 731.953 184.645C732.42 185.508 733.085 186.185 733.948 186.675C734.812 187.141 735.803 187.375 736.923 187.375C737.857 187.375 738.708 187.211 739.478 186.885C740.272 186.558 740.948 186.068 741.508 185.415L743.538 187.48C742.745 188.413 741.765 189.125 740.598 189.615C739.455 190.105 738.23 190.35 736.923 190.35Z" fill="#656D78"/>
<path d="M753.174 190.14L745.964 173.375H749.464L754.819 186.5H753.699L759.334 173.375H762.834L755.064 190.14H753.174ZM748.414 196.965L753.314 186.92L755.064 190.14L751.914 196.965H748.414Z" fill="#656D78"/>
<path d="M772.365 190.35C770.732 190.35 769.262 189.965 767.955 189.195C766.648 188.425 765.61 187.386 764.84 186.08C764.07 184.75 763.685 183.268 763.685 181.635C763.685 180.025 764.07 178.578 764.84 177.295C765.61 175.988 766.648 174.95 767.955 174.18C769.262 173.41 770.732 173.025 772.365 173.025C773.975 173.025 775.433 173.41 776.74 174.18C778.07 174.926 779.12 175.953 779.89 177.26C780.66 178.566 781.045 180.025 781.045 181.635C781.045 183.268 780.66 184.75 779.89 186.08C779.12 187.386 778.07 188.425 776.74 189.195C775.433 189.965 773.975 190.35 772.365 190.35ZM772.365 187.305C773.415 187.305 774.348 187.06 775.165 186.57C775.982 186.08 776.623 185.415 777.09 184.575C777.557 183.711 777.79 182.731 777.79 181.635C777.79 180.561 777.545 179.605 777.055 178.765C776.588 177.925 775.947 177.271 775.13 176.805C774.337 176.315 773.415 176.07 772.365 176.07C771.315 176.07 770.382 176.315 769.565 176.805C768.748 177.271 768.107 177.925 767.64 178.765C767.173 179.605 766.94 180.561 766.94 181.635C766.94 182.731 767.173 183.711 767.64 184.575C768.107 185.415 768.748 186.08 769.565 186.57C770.382 187.06 771.315 187.305 772.365 187.305Z" fill="#656D78"/>
<path d="M796.354 190V180.305C796.354 179.045 795.958 178.006 795.164 177.19C794.371 176.373 793.344 175.965 792.084 175.965C791.244 175.965 790.498 176.151 789.844 176.525C789.191 176.898 788.678 177.411 788.304 178.065C787.931 178.718 787.744 179.465 787.744 180.305L786.449 179.57C786.449 178.31 786.729 177.19 787.289 176.21C787.849 175.23 788.631 174.46 789.634 173.9C790.638 173.316 791.769 173.025 793.029 173.025C794.289 173.025 795.398 173.34 796.354 173.97C797.334 174.6 798.104 175.428 798.664 176.455C799.224 177.458 799.504 178.531 799.504 179.675V190H796.354ZM784.594 190V173.375H787.744V190H784.594Z" fill="#656D78"/>
<path d="M810.804 190.35C809.264 190.35 807.887 189.976 806.674 189.23C805.461 188.46 804.492 187.421 803.769 186.115C803.069 184.808 802.719 183.338 802.719 181.705C802.719 180.071 803.069 178.601 803.769 177.295C804.492 175.988 805.461 174.95 806.674 174.18C807.887 173.41 809.264 173.025 810.804 173.025C812.041 173.025 813.161 173.293 814.164 173.83C815.167 174.343 815.972 175.066 816.579 176C817.209 176.91 817.559 177.971 817.629 179.185V184.19C817.559 185.38 817.221 186.441 816.614 187.375C816.007 188.308 815.202 189.043 814.199 189.58C813.196 190.093 812.064 190.35 810.804 190.35ZM811.329 187.375C812.379 187.375 813.289 187.13 814.059 186.64C814.852 186.15 815.471 185.485 815.914 184.645C816.357 183.781 816.579 182.801 816.579 181.705C816.579 180.561 816.346 179.57 815.879 178.73C815.436 177.89 814.817 177.225 814.024 176.735C813.254 176.245 812.344 176 811.294 176C810.244 176 809.322 176.245 808.529 176.735C807.736 177.225 807.106 177.901 806.639 178.765C806.196 179.605 805.974 180.573 805.974 181.67C805.974 182.79 806.196 183.781 806.639 184.645C807.106 185.485 807.736 186.15 808.529 186.64C809.346 187.13 810.279 187.375 811.329 187.375ZM819.554 190H816.369V185.52L816.964 181.46L816.369 177.435V165.01H819.554V190Z" fill="#656D78"/>
<path d="M831.98 190V165.71H835.27V190H831.98ZM834.22 190V186.99H847.24V190H834.22Z" fill="#656D78"/>
<path d="M850.767 190V173.375H853.917V190H850.767ZM852.342 170.05C851.759 170.05 851.28 169.863 850.907 169.49C850.534 169.093 850.347 168.603 850.347 168.02C850.347 167.46 850.534 166.993 850.907 166.62C851.28 166.223 851.759 166.025 852.342 166.025C852.925 166.025 853.404 166.223 853.777 166.62C854.15 166.993 854.337 167.46 854.337 168.02C854.337 168.603 854.15 169.093 853.777 169.49C853.404 169.863 852.925 170.05 852.342 170.05Z" fill="#656D78"/>
<path d="M858.559 190V173.375H861.709V190H858.559ZM869.794 190V179.955C869.794 178.718 869.409 177.75 868.639 177.05C867.893 176.326 866.947 175.965 865.804 175.965C865.034 175.965 864.346 176.128 863.739 176.455C863.132 176.781 862.643 177.236 862.269 177.82C861.896 178.403 861.709 179.103 861.709 179.92L860.414 179.29C860.414 178.03 860.682 176.933 861.219 176C861.779 175.066 862.537 174.343 863.494 173.83C864.451 173.293 865.524 173.025 866.714 173.025C867.881 173.025 868.931 173.281 869.864 173.795C870.821 174.308 871.567 175.031 872.104 175.965C872.664 176.898 872.944 178.006 872.944 179.29V190H869.794ZM881.029 190V179.955C881.029 178.718 880.644 177.75 879.874 177.05C879.128 176.326 878.194 175.965 877.074 175.965C876.304 175.965 875.604 176.128 874.974 176.455C874.367 176.781 873.878 177.236 873.504 177.82C873.131 178.403 872.944 179.103 872.944 179.92L871.159 179.29C871.229 178.006 871.567 176.91 872.174 176C872.804 175.066 873.609 174.343 874.589 173.83C875.569 173.293 876.642 173.025 877.809 173.025C879.022 173.025 880.107 173.281 881.064 173.795C882.021 174.308 882.779 175.031 883.339 175.965C883.922 176.898 884.214 178.018 884.214 179.325V190H881.029Z" fill="#656D78"/>
<path d="M888.536 190V173.375H891.686V190H888.536ZM890.111 170.05C889.527 170.05 889.049 169.863 888.676 169.49C888.302 169.093 888.116 168.603 888.116 168.02C888.116 167.46 888.302 166.993 888.676 166.62C889.049 166.223 889.527 166.025 890.111 166.025C890.694 166.025 891.172 166.223 891.546 166.62C891.919 166.993 892.106 167.46 892.106 168.02C892.106 168.603 891.919 169.093 891.546 169.49C891.172 169.863 890.694 170.05 890.111 170.05Z" fill="#656D78"/>
<path d="M898.883 190V166.41H902.033V190H898.883ZM894.788 176.245V173.375H906.128V176.245H894.788Z" fill="#656D78"/>
<path d="M914.157 190.35C913.223 190.35 912.337 190.233 911.497 190C910.68 189.743 909.922 189.393 909.222 188.95C908.522 188.483 907.915 187.935 907.402 187.305L909.432 185.275C910.038 186.021 910.738 186.581 911.532 186.955C912.325 187.305 913.212 187.48 914.192 187.48C915.172 187.48 915.93 187.316 916.467 186.99C917.003 186.64 917.272 186.161 917.272 185.555C917.272 184.948 917.05 184.481 916.607 184.155C916.187 183.805 915.638 183.525 914.962 183.315C914.285 183.081 913.562 182.86 912.792 182.65C912.045 182.416 911.333 182.125 910.657 181.775C909.98 181.425 909.42 180.946 908.977 180.34C908.557 179.733 908.347 178.928 908.347 177.925C908.347 176.921 908.592 176.058 909.082 175.335C909.572 174.588 910.248 174.016 911.112 173.62C911.998 173.223 913.06 173.025 914.297 173.025C915.603 173.025 916.758 173.258 917.762 173.725C918.788 174.168 919.628 174.845 920.282 175.755L918.252 177.785C917.785 177.178 917.202 176.711 916.502 176.385C915.825 176.058 915.055 175.895 914.192 175.895C913.282 175.895 912.582 176.058 912.092 176.385C911.625 176.688 911.392 177.12 911.392 177.68C911.392 178.24 911.602 178.671 912.022 178.975C912.442 179.278 912.99 179.535 913.667 179.745C914.367 179.955 915.09 180.176 915.837 180.41C916.583 180.62 917.295 180.911 917.972 181.285C918.648 181.658 919.197 182.16 919.617 182.79C920.06 183.42 920.282 184.248 920.282 185.275C920.282 186.838 919.722 188.075 918.602 188.985C917.505 189.895 916.023 190.35 914.157 190.35Z" fill="#656D78"/>
<path d="M265 145.47V62.4901H283.899V145.47H265ZM319.806 145.47V96.028C319.806 90.496 318.088 86.2317 314.652 83.2352C311.216 80.1234 306.978 78.5676 301.938 78.5676C298.502 78.5676 295.41 79.2591 292.661 80.6421C290.026 82.0251 287.907 84.042 286.304 86.6927C284.7 89.2282 283.899 92.34 283.899 96.028L276.511 91.879C276.511 85.5402 277.885 80.0658 280.634 75.4558C283.383 70.8458 287.106 67.273 291.802 64.7375C296.498 62.0868 301.766 60.7614 307.608 60.7614C313.449 60.7614 318.718 62.0291 323.414 64.5646C328.11 67.1001 331.832 70.6729 334.581 75.2829C337.33 79.8929 338.705 85.425 338.705 91.879V145.47H319.806ZM374.612 145.47V96.028C374.612 90.496 372.894 86.2317 369.458 83.2352C366.022 80.1234 361.784 78.5676 356.744 78.5676C353.423 78.5676 350.387 79.2591 347.639 80.6421C344.89 82.0251 342.713 84.042 341.11 86.6927C339.506 89.2282 338.705 92.34 338.705 96.028L328.053 91.879C328.625 85.5402 330.458 80.0658 333.55 75.4558C336.643 70.8458 340.595 67.273 345.405 64.7375C350.33 62.0868 355.713 60.7614 361.555 60.7614C367.511 60.7614 372.894 62.0291 377.705 64.5646C382.515 67.1001 386.352 70.6729 389.216 75.2829C392.079 79.8929 393.511 85.425 393.511 91.879V145.47H374.612Z" fill="#656D78"/>
<path d="M413.153 145.47V62.4901H432.052V145.47H413.153ZM422.602 47.2771C419.395 47.2771 416.704 46.1822 414.527 43.9924C412.466 41.8027 411.435 39.0943 411.435 35.8673C411.435 32.6403 412.466 29.9319 414.527 27.7421C416.704 25.5524 419.395 24.4575 422.602 24.4575C425.924 24.4575 428.615 25.5524 430.677 27.7421C432.739 29.9319 433.77 32.6403 433.77 35.8673C433.77 39.0943 432.739 41.8027 430.677 43.9924C428.615 46.1822 425.924 47.2771 422.602 47.2771Z" fill="#656D78"/>
<path d="M489.327 147.199C479.821 147.199 471.746 145.47 465.103 142.013C458.46 138.555 452.504 133.484 447.235 126.8L460.636 113.316C463.957 118.156 467.909 121.959 472.49 124.725C477.072 127.376 482.913 128.701 490.015 128.701C496.658 128.701 501.926 127.318 505.821 124.552C509.829 121.786 511.834 117.983 511.834 113.143C511.834 109.109 510.803 105.824 508.741 103.289C506.68 100.753 503.931 98.6787 500.495 97.0652C497.173 95.3365 493.451 93.8382 489.327 92.5705C485.319 91.1875 481.252 89.6892 477.129 88.0757C473.12 86.347 469.398 84.2148 465.962 81.6793C462.64 79.1438 459.949 75.8592 457.887 71.8254C455.825 67.7916 454.794 62.663 454.794 56.4395C454.794 49.294 456.512 43.2433 459.949 38.2876C463.499 33.2165 468.252 29.3556 474.208 26.7049C480.164 24.0541 486.807 22.7288 494.138 22.7288C502.041 22.7288 509.085 24.2846 515.27 27.3964C521.57 30.5082 526.666 34.4843 530.561 39.3248L517.16 52.8091C513.724 48.8906 510.116 46.0093 506.336 44.1653C502.671 42.2061 498.433 41.2264 493.622 41.2264C487.667 41.2264 482.97 42.4366 479.534 44.8568C476.213 47.2771 474.552 50.677 474.552 55.0565C474.552 58.7445 475.583 61.741 477.645 64.046C479.706 66.2358 482.398 68.1374 485.719 69.7509C489.156 71.2492 492.878 72.6898 496.887 74.0728C501.01 75.4558 505.076 77.0117 509.085 78.7404C513.208 80.4692 516.931 82.7166 520.252 85.4826C523.688 88.1333 526.437 91.5908 528.499 95.8551C530.561 100.119 531.592 105.479 531.592 111.933C531.592 122.766 527.755 131.352 520.081 137.691C512.521 144.03 502.27 147.199 489.327 147.199Z" fill="url(#paint1_linear_3003_781)"/>
<path d="M561.256 145.47V27.915H580.155V145.47H561.256ZM541.499 79.7777V62.4901H599.913V79.7777H541.499Z" fill="url(#paint2_linear_3003_781)"/>
<path d="M645.829 147.199C638.384 147.199 631.626 145.298 625.556 141.494C619.6 137.691 614.847 132.562 611.296 126.108C607.86 119.539 606.142 112.221 606.142 104.153C606.142 95.9704 607.86 88.652 611.296 82.1979C614.847 75.6287 619.6 70.4424 625.556 66.6391C631.626 62.7206 638.384 60.7614 645.829 60.7614C652.128 60.7614 657.684 62.1444 662.494 64.9104C667.419 67.5611 671.313 71.2492 674.177 75.9744C677.04 80.6997 678.472 86.0588 678.472 92.0518V115.909C678.472 121.902 677.04 127.261 674.177 131.986C671.428 136.711 667.591 140.457 662.666 143.223C657.741 145.874 652.128 147.199 645.829 147.199ZM648.921 129.22C655.908 129.22 661.521 126.857 665.758 122.132C670.111 117.407 672.287 111.356 672.287 103.98C672.287 99.0245 671.313 94.645 669.366 90.8417C667.419 87.0385 664.67 84.0996 661.12 82.0251C657.684 79.8353 653.617 78.7404 648.921 78.7404C644.34 78.7404 640.274 79.8353 636.723 82.0251C633.287 84.0996 630.538 87.0385 628.477 90.8417C626.529 94.645 625.556 99.0245 625.556 103.98C625.556 108.936 626.529 113.316 628.477 117.119C630.538 120.922 633.287 123.919 636.723 126.108C640.274 128.183 644.34 129.22 648.921 129.22ZM671.084 145.47V123.169L674.349 102.943L671.084 82.8894V62.4901H689.983V145.47H671.084Z" fill="url(#paint3_linear_3003_781)"/>
<path d="M755.111 147.199C748.811 147.199 743.199 145.874 738.274 143.223C733.349 140.457 729.454 136.711 726.591 131.986C723.842 127.261 722.468 121.902 722.468 115.909V92.0518C722.468 86.0588 723.899 80.6997 726.763 75.9744C729.626 71.2492 733.521 67.5611 738.446 64.9104C743.371 62.1444 748.926 60.7614 755.111 60.7614C762.556 60.7614 769.256 62.7206 775.212 66.6391C781.283 70.4424 786.036 75.6287 789.472 82.1979C793.023 88.652 794.798 95.9704 794.798 104.153C794.798 112.221 793.023 119.539 789.472 126.108C786.036 132.562 781.283 137.691 775.212 141.494C769.256 145.298 762.556 147.199 755.111 147.199ZM710.957 145.47V21H729.855V82.8894L726.591 102.943L729.855 123.169V145.47H710.957ZM752.018 129.22C756.6 129.22 760.609 128.183 764.045 126.108C767.595 123.919 770.344 120.922 772.291 117.119C774.353 113.316 775.384 108.936 775.384 103.98C775.384 99.0245 774.353 94.645 772.291 90.8417C770.344 87.0385 767.595 84.0996 764.045 82.0251C760.609 79.8353 756.6 78.7404 752.018 78.7404C747.437 78.7404 743.371 79.8353 739.82 82.0251C736.269 84.0996 733.521 87.0385 731.573 90.8417C729.626 94.645 728.653 99.0245 728.653 103.98C728.653 108.936 729.626 113.316 731.573 117.119C733.521 120.922 736.269 123.919 739.82 126.108C743.371 128.183 747.437 129.22 752.018 129.22Z" fill="url(#paint4_linear_3003_781)"/>
<path d="M810.617 145.47V21H829.516V145.47H810.617Z" fill="url(#paint5_linear_3003_781)"/>
<path d="M888.862 147.199C880.615 147.199 873.17 145.355 866.527 141.667C859.998 137.864 854.787 132.678 850.893 126.108C847.113 119.539 845.223 112.163 845.223 103.98C845.223 95.7975 847.113 88.4791 850.893 82.0251C854.672 75.4558 859.769 70.2695 866.183 66.4663C872.712 62.663 879.928 60.7614 887.831 60.7614C895.505 60.7614 902.262 62.5478 908.104 66.1205C914.06 69.6933 918.699 74.5914 922.02 80.8149C925.456 87.0385 927.174 94.1264 927.174 102.079C927.174 103.462 927.06 104.902 926.831 106.401C926.716 107.784 926.487 109.339 926.143 111.068H858.452V95.5094H916.351L909.306 101.733C909.077 96.6619 908.104 92.3976 906.386 88.9401C904.668 85.4826 902.205 82.8318 898.998 80.9878C895.906 79.1438 892.069 78.2218 887.487 78.2218C882.677 78.2218 878.496 79.2591 874.945 81.3336C871.395 83.4081 868.646 86.347 866.699 90.1502C864.752 93.8382 863.778 98.2754 863.778 103.462C863.778 108.648 864.809 113.2 866.87 117.119C868.932 121.037 871.853 124.091 875.633 126.281C879.412 128.356 883.765 129.393 888.69 129.393C892.928 129.393 896.822 128.644 900.373 127.146C904.038 125.647 907.13 123.458 909.65 120.576L921.677 132.85C917.668 137.576 912.8 141.149 907.073 143.569C901.346 145.989 895.276 147.199 888.862 147.199Z" fill="url(#paint6_linear_3003_781)"/>
<defs>
<linearGradient id="paint0_linear_3003_781" x1="130" y1="19.5" x2="227" y2="208" gradientUnits="userSpaceOnUse">
<stop stop-color="#4FC0E8"/>
<stop offset="1" stop-color="#48CFAE"/>
</linearGradient>
<linearGradient id="paint1_linear_3003_781" x1="265" y1="84.0996" x2="927.174" y2="84.0996" gradientUnits="userSpaceOnUse">
<stop offset="0.38" stop-color="#4FC0E8"/>
<stop offset="0.9" stop-color="#4FCAB3"/>
</linearGradient>
<linearGradient id="paint2_linear_3003_781" x1="265" y1="84.0996" x2="927.174" y2="84.0996" gradientUnits="userSpaceOnUse">
<stop offset="0.38" stop-color="#4FC0E8"/>
<stop offset="0.9" stop-color="#4FCAB3"/>
</linearGradient>
<linearGradient id="paint3_linear_3003_781" x1="265" y1="84.0996" x2="927.174" y2="84.0996" gradientUnits="userSpaceOnUse">
<stop offset="0.38" stop-color="#4FC0E8"/>
<stop offset="0.9" stop-color="#4FCAB3"/>
</linearGradient>
<linearGradient id="paint4_linear_3003_781" x1="265" y1="84.0996" x2="927.174" y2="84.0996" gradientUnits="userSpaceOnUse">
<stop offset="0.38" stop-color="#4FC0E8"/>
<stop offset="0.9" stop-color="#4FCAB3"/>
</linearGradient>
<linearGradient id="paint5_linear_3003_781" x1="265" y1="84.0996" x2="927.174" y2="84.0996" gradientUnits="userSpaceOnUse">
<stop offset="0.38" stop-color="#4FC0E8"/>
<stop offset="0.9" stop-color="#4FCAB3"/>
</linearGradient>
<linearGradient id="paint6_linear_3003_781" x1="265" y1="84.0996" x2="927.174" y2="84.0996" gradientUnits="userSpaceOnUse">
<stop offset="0.38" stop-color="#4FC0E8"/>
<stop offset="0.9" stop-color="#4FCAB3"/>
</linearGradient>
<clipPath id="clip0_3003_781">
<rect width="247" height="208" fill="white"/>
</clipPath>
</defs>
</svg>
